<svg width="15" height="16" viewBox="0 0 15 16" fill="none" xmlns="http://www.w3.org/2000/svg">
<path d="M7.79699 13.3996C7.62985 13.4004 7.46244 13.332 7.3422 13.1944L3.14818 8.39439C2.93015 8.14486 2.95569 7.76582 3.20522 7.54778C3.45476 7.32975 3.8338 7.35529 4.05183 7.60483L7.20001 11.2079V3.19961C7.20001 2.86824 7.46864 2.59961 7.80001 2.59961C8.13138 2.59961 8.40001 2.86824 8.40001 3.19961V11.1976L11.5487 7.60419C11.7671 7.35496 12.1462 7.32996 12.3954 7.54834C12.6447 7.76673 12.6697 8.1458 12.4513 8.39503L8.29654 13.1365C8.18859 13.2953 8.00648 13.3996 7.80001 13.3996L7.79699 13.3996Z" fill="#FC5A5A"/>
</svg>
