<svg width="15" height="15" viewBox="0 0 15 15" fill="none" xmlns="http://www.w3.org/2000/svg">
<path d="M7.19738 1.8C7.03024 1.79918 6.86283 1.86759 6.74259 2.0052L2.54857 6.8052C2.33054 7.05474 2.35608 7.43378 2.60562 7.65181C2.85515 7.86985 3.23419 7.84431 3.45222 7.59477L6.6004 3.99173V12C6.6004 12.3314 6.86903 12.6 7.2004 12.6C7.53177 12.6 7.8004 12.3314 7.8004 12V4.00198L10.9491 7.59541C11.1675 7.84464 11.5466 7.86964 11.7958 7.65126C12.045 7.43287 12.0701 7.0538 11.8517 6.80457L7.69693 2.06306C7.58898 1.90428 7.40687 1.79999 7.2004 1.79999L7.19738 1.8Z" fill="#3DD598"/>
</svg>
