<svg width="35" height="35" viewBox="0 0 35 35" fill="none" xmlns="http://www.w3.org/2000/svg">
<rect width="35" height="35" fill="white"/>
<circle cx="17.5" cy="17.5" r="17.5" fill="#FF7A2C"/>
<path d="M17 12.6094C14 12.6094 11.6094 15.0469 11.6094 18C11.6094 21 14 23.3906 17 23.3906C19.9531 23.3906 22.3906 21 22.3906 18C22.3906 15.0469 19.9531 12.6094 17 12.6094ZM17 21.5156C15.0781 21.5156 13.4844 19.9688 13.4844 18C13.4844 16.0781 15.0312 14.5312 17 14.5312C18.9219 14.5312 20.4688 16.0781 20.4688 18C20.4688 19.9688 18.9219 21.5156 17 21.5156ZM23.8438 12.4219C23.8438 11.7188 23.2812 11.1562 22.5781 11.1562C21.875 11.1562 21.3125 11.7188 21.3125 12.4219C21.3125 13.125 21.875 13.6875 22.5781 13.6875C23.2812 13.6875 23.8438 13.125 23.8438 12.4219ZM27.4062 13.6875C27.3125 12 26.9375 10.5 25.7188 9.28125C24.5 8.0625 23 7.6875 21.3125 7.59375C19.5781 7.5 14.375 7.5 12.6406 7.59375C10.9531 7.6875 9.5 8.0625 8.23438 9.28125C7.01562 10.5 6.64062 12 6.54688 13.6875C6.45312 15.4219 6.45312 20.625 6.54688 22.3594C6.64062 24.0469 7.01562 25.5 8.23438 26.7656C9.5 27.9844 10.9531 28.3594 12.6406 28.4531C14.375 28.5469 19.5781 28.5469 21.3125 28.4531C23 28.3594 24.5 27.9844 25.7188 26.7656C26.9375 25.5 27.3125 24.0469 27.4062 22.3594C27.5 20.625 27.5 15.4219 27.4062 13.6875ZM25.1562 24.1875C24.8281 25.125 24.0781 25.8281 23.1875 26.2031C21.7812 26.7656 18.5 26.625 17 26.625C15.4531 26.625 12.1719 26.7656 10.8125 26.2031C9.875 25.8281 9.17188 25.125 8.79688 24.1875C8.23438 22.8281 8.375 19.5469 8.375 18C8.375 16.5 8.23438 13.2188 8.79688 11.8125C9.17188 10.9219 9.875 10.2188 10.8125 9.84375C12.1719 9.28125 15.4531 9.42188 17 9.42188C18.5 9.42188 21.7812 9.28125 23.1875 9.84375C24.0781 10.1719 24.7812 10.9219 25.1562 11.8125C25.7188 13.2188 25.5781 16.5 25.5781 18C25.5781 19.5469 25.7188 22.8281 25.1562 24.1875Z" fill="white"/>
</svg>
