<svg width="20" height="20" viewBox="0 0 20 20" fill="none" xmlns="http://www.w3.org/2000/svg">
<g clip-path="url(#clip0_2613_8625)">
<rect width="20" height="20" rx="10" fill="#FF7A2C"/>
<path fill-rule="evenodd" clip-rule="evenodd" d="M6.66667 7.30163V15C6.66667 15.221 6.57887 15.4329 6.42259 15.5892C6.26631 15.7455 6.05435 15.8333 5.83333 15.8333C5.61232 15.8333 5.40036 15.7455 5.24408 15.5892C5.0878 15.4329 5 15.221 5 15V4.99996C5.00008 4.82876 5.05288 4.66174 5.15123 4.5216C5.24958 4.38147 5.38871 4.27503 5.54969 4.21676C5.71066 4.15849 5.88569 4.15121 6.05095 4.19592C6.21621 4.24062 6.36369 4.33514 6.47333 4.46663L13.3333 12.6983V4.99996C13.3333 4.77895 13.4211 4.56698 13.5774 4.4107C13.7337 4.25442 13.9457 4.16663 14.1667 4.16663C14.3877 4.16663 14.5996 4.25442 14.7559 4.4107C14.9122 4.56698 15 4.77895 15 4.99996V15C14.9999 15.1712 14.9471 15.3382 14.8488 15.4783C14.7504 15.6184 14.6113 15.7249 14.4503 15.7832C14.2893 15.8414 14.1143 15.8487 13.9491 15.804C13.7838 15.7593 13.6363 15.6648 13.5267 15.5333L6.66667 7.30163Z" fill="white"/>
</g>
<defs>
<clipPath id="clip0_2613_8625">
<rect width="20" height="20" rx="10" fill="white"/>
</clipPath>
</defs>
</svg>
